#Comment line ignore any data following # character 
#Hierarchical Translation and Rotation (.htr) file 
[Header]	
#Header keywords are followed by a single value 
FileType HTR		#Single word string
DataType HTRS		#Translation followed by rotation and scale data
FileVersion 1		#integer
NumSegments 84		#integer
NumFrames 2		#integer
DataFrameRate 30		#integer, data frame rate in this file
EulerRotationOrder ZYX
CalibrationUnits mm
RotationUnits Degrees
GlobalAxisofGravity Y
BoneLengthAxis Y
ScaleFactor 1.00
[SegmentNames&Hierarchy]
#CHILD	PARENT
MASTER GLOBAL
root MASTER
chest root
L_mid_tent01 root
R_mid_tent01 root
spine01 root
Bip01_Neck chest
L_humerus chest
R_humerus chest
weapon_bone chest
Bip01_Head Bip01_Neck
eye_left_bone Bip01_Head
eye_right_bone Bip01_Head
L_forearm L_humerus
L_front_hand L_forearm
L_weapon_bone L_forearm
L_front_hand01_01 L_front_hand
L_front_hand02_01 L_front_hand
L_front_hand03_01 L_front_hand
L_front_hand01_02 L_front_hand01_01
L_front_hand02_02 L_front_hand02_01
L_front_hand03_02 L_front_hand03_01
R_forearm R_humerus
R_front_hand R_forearm
R_weapon_bone R_forearm
R_front_hand01_01 R_front_hand
R_front_hand02_01 R_front_hand
R_front_hand03_01 R_front_hand
R_front_hand01_02 R_front_hand01_01
R_front_hand02_02 R_front_hand02_01
R_front_hand03_02 R_front_hand03_01
null_rope01_connect L_mid_tent01
Rope1_Seg01 null_rope01_connect
Rope1_Seg02 Rope1_Seg01
Rope1_Seg03 Rope1_Seg02
Rope1_Seg04 Rope1_Seg03
Rope1_Seg05 Rope1_Seg04
Rope1_Seg06 Rope1_Seg05
Rope1_Seg07 Rope1_Seg06
Rope1_Seg09 Rope1_Seg07
L_mid_hand01 Rope1_Seg09
L_mid_hand02 Rope1_Seg09
L_mid_hand03 Rope1_Seg09
null_rope02_connect R_mid_tent01
Rope2_Seg01 null_rope02_connect
Rope2_Seg02 Rope2_Seg01
Rope2_Seg03 Rope2_Seg02
Rope2_Seg04 Rope2_Seg03
Rope2_Seg05 Rope2_Seg04
Rope2_Seg06 Rope2_Seg05
Rope2_Seg07 Rope2_Seg06
Rope2_Seg09 Rope2_Seg07
R_mid_hand01 Rope2_Seg09
R_mid_hand02 Rope2_Seg09
R_mid_hand03 Rope2_Seg09
spine02 spine01
spine03 spine02
pelvis spine03
null_rope03_connect pelvis
null_rope04_connect pelvis
Rope3_Seg01 null_rope03_connect
Rope3_Seg02 Rope3_Seg01
Rope3_Seg03 Rope3_Seg02
Rope3_Seg04 Rope3_Seg03
Rope3_Seg05 Rope3_Seg04
Rope3_Seg06 Rope3_Seg05
Rope3_Seg07 Rope3_Seg06
Rope3_Seg08 Rope3_Seg07
Rope3_Seg09 Rope3_Seg08
R_rear_hand01 Rope3_Seg09
R_rear_hand02 Rope3_Seg09
R_rear_hand03 Rope3_Seg09
Rope4_Seg01 null_rope04_connect
Rope4_Seg02 Rope4_Seg01
Rope4_Seg03 Rope4_Seg02
Rope4_Seg04 Rope4_Seg03
Rope4_Seg05 Rope4_Seg04
Rope4_Seg06 Rope4_Seg05
Rope4_Seg07 Rope4_Seg06
Rope4_Seg08 Rope4_Seg07
Rope4_Seg09 Rope4_Seg08
L_rear_hand01 Rope4_Seg09
L_rear_hand02 Rope4_Seg09
L_rear_hand03 Rope4_Seg09
[BasePosition]
#SegmentName Tx, Ty, Tz, Rx, Ry, Rz, BoneLength
MASTER 0.000000 0.000000 0.000000 -90.000000 0.000000 0.000000 10.000000 
root 0.000000 0.000000 0.000000 0.000000 0.000000 0.000000 10.000000 
chest 0.000000 0.000000 0.000000 0.000000 0.000000 0.000000 10.000000 
L_mid_tent01 0.000000 0.000000 0.000000 0.000000 0.000000 0.000000 10.000000 
R_mid_tent01 0.000000 0.000000 0.000000 0.000000 0.000000 0.000000 10.000000 
spine01 0.000000 0.000000 0.000000 0.000000 0.000000 0.000000 10.000000 
Bip01_Neck 0.000000 0.000000 0.000000 0.000000 0.000000 0.000000 10.000000 
L_humerus 0.000000 0.000000 0.000000 0.000000 0.000000 0.000000 10.000000 
R_humerus 0.000000 0.000000 0.000000 0.000000 0.000000 0.000000 10.000000 
weapon_bone 0.000000 0.000000 0.000000 0.000000 0.000000 0.000000 10.000000 
Bip01_Head 0.000000 0.000000 0.000000 0.000000 0.000000 0.000000 10.000000 
eye_left_bone 0.000000 0.000000 0.000000 0.000000 0.000000 0.000000 10.000000 
eye_right_bone 0.000000 0.000000 0.000000 0.000000 0.000000 0.000000 10.000000 
L_forearm 0.000000 0.000000 0.000000 0.000000 0.000000 0.000000 10.000000 
L_front_hand 0.000000 0.000000 0.000000 0.000000 0.000000 0.000000 10.000000 
L_weapon_bone 0.000000 0.000000 0.000000 0.000000 0.000000 0.000000 10.000000 
L_front_hand01_01 0.000000 0.000000 0.000000 0.000000 0.000000 0.000000 10.000000 
L_front_hand02_01 0.000000 0.000000 0.000000 0.000000 0.000000 0.000000 10.000000 
L_front_hand03_01 0.000000 0.000000 0.000000 0.000000 0.000000 0.000000 10.000000 
L_front_hand01_02 0.000000 0.000000 0.000000 0.000000 0.000000 0.000000 10.000000 
L_front_hand02_02 0.000000 0.000000 0.000000 0.000000 0.000000 0.000000 10.000000 
L_front_hand03_02 0.000000 0.000000 0.000000 0.000000 0.000000 0.000000 10.000000 
R_forearm 0.000000 0.000000 0.000000 0.000000 0.000000 0.000000 10.000000 
R_front_hand 0.000000 0.000000 0.000000 0.000000 0.000000 0.000000 10.000000 
R_weapon_bone 0.000000 0.000000 0.000000 0.000000 0.000000 0.000000 10.000000 
R_front_hand01_01 0.000000 0.000000 0.000000 0.000000 0.000000 0.000000 10.000000 
R_front_hand02_01 0.000000 0.000000 0.000000 0.000000 0.000000 0.000000 10.000000 
R_front_hand03_01 0.000000 0.000000 0.000000 0.000000 0.000000 0.000000 10.000000 
R_front_hand01_02 0.000000 0.000000 0.000000 0.000000 0.000000 0.000000 10.000000 
R_front_hand02_02 0.000000 0.000000 0.000000 0.000000 0.000000 0.000000 10.000000 
R_front_hand03_02 0.000000 0.000000 0.000000 0.000000 0.000000 0.000000 10.000000 
null_rope01_connect 0.000000 0.000000 0.000000 0.000000 0.000000 0.000000 10.000000 
Rope1_Seg01 0.000000 0.000000 0.000000 0.000000 0.000000 0.000000 10.000000 
Rope1_Seg02 0.000000 0.000000 0.000000 0.000000 0.000000 0.000000 10.000000 
Rope1_Seg03 0.000000 0.000000 0.000000 0.000000 0.000000 0.000000 10.000000 
Rope1_Seg04 0.000000 0.000000 0.000000 0.000000 0.000000 0.000000 10.000000 
Rope1_Seg05 0.000000 0.000000 0.000000 0.000000 0.000000 0.000000 10.000000 
Rope1_Seg06 0.000000 0.000000 0.000000 0.000000 0.000000 0.000000 10.000000 
Rope1_Seg07 0.000000 0.000000 0.000000 0.000000 0.000000 0.000000 10.000000 
Rope1_Seg09 0.000000 0.000000 0.000000 0.000000 0.000000 0.000000 10.000000 
L_mid_hand01 0.000000 0.000000 0.000000 0.000000 0.000000 0.000000 10.000000 
L_mid_hand02 0.000000 0.000000 0.000000 0.000000 0.000000 0.000000 10.000000 
L_mid_hand03 0.000000 0.000000 0.000000 0.000000 0.000000 0.000000 10.000000 
null_rope02_connect 0.000000 0.000000 0.000000 0.000000 0.000000 0.000000 10.000000 
Rope2_Seg01 0.000000 0.000000 0.000000 0.000000 0.000000 0.000000 10.000000 
Rope2_Seg02 0.000000 0.000000 0.000000 0.000000 0.000000 0.000000 10.000000 
Rope2_Seg03 0.000000 0.000000 0.000000 0.000000 0.000000 0.000000 10.000000 
Rope2_Seg04 0.000000 0.000000 0.000000 0.000000 0.000000 0.000000 10.000000 
Rope2_Seg05 0.000000 0.000000 0.000000 0.000000 0.000000 0.000000 10.000000 
Rope2_Seg06 0.000000 0.000000 0.000000 0.000000 0.000000 0.000000 10.000000 
Rope2_Seg07 0.000000 0.000000 0.000000 0.000000 0.000000 0.000000 10.000000 
Rope2_Seg09 0.000000 0.000000 0.000000 0.000000 0.000000 0.000000 10.000000 
R_mid_hand01 0.000000 0.000000 0.000000 0.000000 0.000000 0.000000 10.000000 
R_mid_hand02 0.000000 0.000000 0.000000 0.000000 0.000000 0.000000 10.000000 
R_mid_hand03 0.000000 0.000000 0.000000 0.000000 0.000000 0.000000 10.000000 
spine02 0.000000 0.000000 0.000000 0.000000 0.000000 0.000000 10.000000 
spine03 0.000000 0.000000 0.000000 0.000000 0.000000 0.000000 10.000000 
pelvis 0.000000 0.000000 0.000000 0.000000 0.000000 0.000000 10.000000 
null_rope03_connect 0.000000 0.000000 0.000000 0.000000 0.000000 0.000000 10.000000 
null_rope04_connect 0.000000 0.000000 0.000000 0.000000 0.000000 0.000000 10.000000 
Rope3_Seg01 0.000000 0.000000 0.000000 0.000000 0.000000 0.000000 10.000000 
Rope3_Seg02 0.000000 0.000000 0.000000 0.000000 0.000000 0.000000 10.000000 
Rope3_Seg03 0.000000 0.000000 0.000000 0.000000 0.000000 0.000000 10.000000 
Rope3_Seg04 0.000000 0.000000 0.000000 0.000000 0.000000 0.000000 10.000000 
Rope3_Seg05 0.000000 0.000000 0.000000 0.000000 0.000000 0.000000 10.000000 
Rope3_Seg06 0.000000 0.000000 0.000000 0.000000 0.000000 0.000000 10.000000 
Rope3_Seg07 0.000000 0.000000 0.000000 0.000000 0.000000 0.000000 10.000000 
Rope3_Seg08 0.000000 0.000000 0.000000 0.000000 0.000000 0.000000 10.000000 
Rope3_Seg09 0.000000 0.000000 0.000000 0.000000 0.000000 0.000000 10.000000 
R_rear_hand01 0.000000 0.000000 0.000000 0.000000 0.000000 0.000000 10.000000 
R_rear_hand02 0.000000 0.000000 0.000000 0.000000 0.000000 0.000000 10.000000 
R_rear_hand03 0.000000 0.000000 0.000000 0.000000 0.000000 0.000000 10.000000 
Rope4_Seg01 0.000000 0.000000 0.000000 0.000000 0.000000 0.000000 10.000000 
Rope4_Seg02 0.000000 0.000000 0.000000 0.000000 0.000000 0.000000 10.000000 
Rope4_Seg03 0.000000 0.000000 0.000000 0.000000 0.000000 0.000000 10.000000 
Rope4_Seg04 0.000000 0.000000 0.000000 0.000000 0.000000 0.000000 10.000000 
Rope4_Seg05 0.000000 0.000000 0.000000 0.000000 0.000000 0.000000 10.000000 
Rope4_Seg06 0.000000 0.000000 0.000000 0.000000 0.000000 0.000000 10.000000 
Rope4_Seg07 0.000000 0.000000 0.000000 0.000000 0.000000 0.000000 10.000000 
Rope4_Seg08 0.000000 0.000000 0.000000 0.000000 0.000000 0.000000 10.000000 
Rope4_Seg09 0.000000 0.000000 0.000000 0.000000 0.000000 0.000000 10.000000 
L_rear_hand01 0.000000 0.000000 0.000000 0.000000 0.000000 0.000000 10.000000 
L_rear_hand02 0.000000 0.000000 0.000000 0.000000 0.000000 0.000000 10.000000 
L_rear_hand03 0.000000 0.000000 0.000000 0.000000 0.000000 0.000000 10.000000 
#Beginning of Data. Separated by tabs
#Fr	Tx	Ty	Tz	Rx	Ry	Rz	SF
[MASTER]
5 -346.146637 -0.000052 0.000000 0.001660 0.001660 0.001660 346.146637
6 -490.350922 -0.000074 0.000000 0.001660 0.001660 0.001660 490.350922
[root]
5 -16.502304 -62.822117 1293.166138 -42.612236 -27.677010 -90.150047 1294.796387
6 -16.502304 -62.822117 1226.541870 -23.661467 -27.673883 -90.148865 1228.260498
[chest]
5 -84.512650 -34.090519 0.000000 51.370560 0.340331 177.428558 91.129311
6 -84.512650 -34.090519 0.000000 72.713715 1.142803 175.783279 91.129311
[L_mid_tent01]
5 27.456892 22.087402 -250.929718 -29.233292 5.981930 21.382013 253.391907
6 27.471405 22.079071 -251.022934 -29.731777 4.232399 19.474463 253.485046
[R_mid_tent01]
5 23.228794 24.509907 226.238495 -153.571594 -44.383675 26.425430 228.744751
6 23.228794 24.509907 226.238495 -153.054871 -44.541176 25.448687 228.744751
[spine01]
5 -0.361383 -0.195265 0.000000 2.980417 0.746728 -2.200461 0.410763
6 -0.361383 -0.195265 0.000000 5.651736 0.863922 -2.917227 0.410763
[Bip01_Neck]
5 165.484543 71.581718 0.000119 175.896118 1.177290 24.871185 180.302734
6 165.484543 71.581718 0.000119 175.896118 1.177290 24.871183 180.302734
[L_humerus]
5 -13.983130 -135.272980 -120.471481 170.940796 81.564224 -99.189163 181.680161
6 -13.983130 -135.272980 -120.471481 170.940811 81.564247 -99.189163 181.680161
[R_humerus]
5 -13.983309 -135.273102 125.287651 -159.666046 -68.957878 -101.166100 184.909012
6 -13.983309 -135.273102 125.287651 -159.666046 -68.957870 -101.166077 184.909012
[weapon_bone]
5 235.964890 -300.705902 0.000000 0.000000 -89.951546 -128.212341 382.234833
6 235.964890 -300.705902 0.000000 0.000000 -89.951546 -128.212341 382.234833
[Bip01_Head]
5 261.355835 108.959396 -2.864219 2.248029 5.843377 -62.458344 283.173492
6 261.355835 108.959404 -2.864212 2.248029 5.843377 -62.458344 283.173492
[eye_left_bone]
5 -24.626970 125.451866 -64.772606 0.000000 -90.000000 -99.840431 143.318359
6 -24.626970 125.451866 -64.772606 0.000000 -90.000000 -99.840431 143.318359
[eye_right_bone]
5 -24.626970 125.451866 64.327362 0.000000 -89.960434 80.159386 143.117676
6 -24.626970 125.451866 64.327362 0.000000 -89.960434 80.159386 143.117676
[L_forearm]
5 322.776093 0.000000 -0.000119 0.000471 0.002300 -66.859398 322.776093
6 322.776093 0.000000 -0.000119 0.000471 0.002300 -66.859383 322.776093
[L_front_hand]
5 241.149185 -0.042021 -3.300071 -178.667953 -1.835447 -27.422350 241.171753
6 241.149185 -0.042021 -3.300071 -178.667953 -1.835447 -27.422342 241.171753
[L_weapon_bone]
5 156.183838 0.000000 0.000000 0.002111 0.001027 38.114681 156.183838
6 156.183838 0.000000 0.000000 0.002069 0.001109 33.607582 156.183838
[L_front_hand01_01]
5 86.095154 20.947098 -0.655860 -0.365397 -0.478071 75.098351 88.609184
6 86.095154 20.947098 -0.655860 -0.366594 -0.477154 75.385574 88.609184
[L_front_hand02_01]
5 86.935165 -11.437475 24.513514 153.962997 -59.762066 -60.859097 91.046425
6 86.935165 -11.437475 24.513514 154.403519 -59.888931 -61.371990 91.046425
[L_front_hand03_01]
5 86.637497 -14.123976 -20.424902 -153.509613 57.991444 -62.227245 90.126129
6 86.637497 -14.123976 -20.424902 -153.913849 58.118122 -62.702866 90.126129
[L_front_hand01_02]
5 71.020905 -0.000179 0.000030 0.001530 0.001780 -8.661532 71.020905
6 71.020905 -0.000179 0.000030 0.001517 0.001791 -9.480136 71.020905
[L_front_hand02_02]
5 71.020927 -0.000119 0.000060 0.001530 0.001780 -8.661532 71.020927
6 71.020927 -0.000119 0.000060 0.001517 0.001791 -9.480136 71.020927
[L_front_hand03_02]
5 71.020905 -0.000060 0.000060 0.001530 0.001780 -8.661532 71.020905
6 71.020905 -0.000060 0.000060 0.001517 0.001791 -9.480136 71.020905
[R_forearm]
5 322.776428 -0.000060 0.000030 0.199694 -0.075621 -69.903061 322.776428
6 322.776428 -0.000060 0.000030 0.199694 -0.075621 -69.903069 322.776428
[R_front_hand]
5 238.847015 -0.006795 2.210259 -1.531694 0.790216 -51.443062 238.857239
6 238.847015 -0.006795 2.210259 -1.531694 0.790216 -51.443054 238.857239
[R_weapon_bone]
5 155.664093 0.002503 -0.000030 0.002747 0.002450 -137.059357 155.664078
6 155.664093 0.002503 -0.000030 0.002801 0.002388 -134.507675 155.664078
[R_front_hand01_01]
5 87.624611 14.231146 22.918642 -154.633499 -59.950619 61.746044 91.683487
6 87.624611 14.231146 22.918642 -154.633499 -59.950619 61.746044 91.683487
[R_front_hand02_01]
5 89.356956 14.367283 -19.491137 154.602661 58.302849 63.744389 92.579636
6 89.356956 14.367283 -19.491137 154.602661 58.302849 63.744389 92.579636
[R_front_hand03_01]
5 87.286232 -22.307278 -0.143439 0.162155 -0.423168 -75.767921 90.091743
6 87.286232 -22.307278 -0.143439 0.162155 -0.423168 -75.767921 90.091743
[R_front_hand01_02]
5 71.020905 0.000060 0.000119 0.001780 0.001530 8.659903 71.020905
6 71.020905 0.000060 0.000119 0.001791 0.001517 9.478504 71.020905
[R_front_hand02_02]
5 71.020844 -0.000030 -0.000119 0.001780 0.001530 8.659903 71.020836
6 71.020844 -0.000030 -0.000119 0.001791 0.001517 9.478504 71.020836
[R_front_hand03_02]
5 71.020905 0.000000 0.000030 0.001780 0.001530 8.659903 71.020905
6 71.020905 0.000000 0.000030 0.001791 0.001517 9.478504 71.020905
[null_rope01_connect]
5 328.732483 0.000000 -0.000238 44.212845 -71.310654 52.792809 328.732483
6 328.732483 0.000000 -0.000238 37.491913 -52.782944 63.220909 328.732483
[Rope1_Seg01]
5 0.000000 0.000000 0.000000 -11.267713 49.645107 -10.213303 0.000000
6 0.000000 0.000000 0.000000 -16.444038 23.660864 -22.630331 0.000000
[Rope1_Seg02]
5 139.999863 -0.000179 0.000000 -1.292321 18.635935 11.725035 139.999863
6 139.999863 -0.000179 0.000000 -7.557153 51.192612 12.903070 139.999863
[Rope1_Seg03]
5 139.999924 0.000060 -0.000060 -1.121668 37.456459 27.178679 139.999924
6 139.999924 0.000060 -0.000060 -17.535048 38.456509 20.806471 139.999924
[Rope1_Seg04]
5 139.999924 -0.000060 -0.000119 -1.480296 21.493628 28.200573 139.999924
6 139.999924 -0.000060 -0.000119 -7.020142 5.742984 22.113121 139.999924
[Rope1_Seg05]
5 139.999832 0.000119 -0.000060 -0.380907 4.216925 12.274959 139.999832
6 139.999832 0.000119 -0.000060 -1.479388 0.830123 8.451738 139.999832
[Rope1_Seg06]
5 139.999954 0.000119 -0.000060 0.077416 2.062670 4.480763 139.999954
6 139.999954 0.000119 -0.000060 -0.489321 0.567077 3.778505 139.999954
[Rope1_Seg07]
5 139.999985 0.000060 0.000000 0.096497 1.171983 2.500551 139.999985
6 139.999985 0.000060 0.000000 -0.234133 0.327908 2.305850 139.999985
[Rope1_Seg09]
5 121.602913 0.000119 -0.000089 -89.793175 -1.359789 0.847147 121.602913
6 121.602913 0.000119 -0.000089 -89.793175 -1.359789 0.847147 121.602913
[L_mid_hand01]
5 103.859421 1.038730 8.195221 111.431297 -47.263840 -16.612019 104.187431
6 103.859421 1.038730 8.195221 111.431305 -47.263851 -16.612017 104.187431
[L_mid_hand02]
5 105.572853 -4.139662 -10.864139 -150.709808 35.166882 -45.161087 106.211075
6 105.572853 -4.139662 -10.864139 -150.709808 35.166882 -45.161087 106.211075
[L_mid_hand03]
5 104.641464 17.579376 -3.913581 -12.649597 13.975001 50.985863 106.179977
6 104.641464 17.579376 -3.913581 -12.649596 13.974999 50.985855 106.179977
[null_rope02_connect]
5 328.732849 0.000179 -0.000119 -130.995895 -3.622854 -44.935814 328.732849
6 328.732849 0.000179 -0.000119 -128.869354 -21.344355 -52.951618 328.732849
[Rope2_Seg01]
5 -0.000070 0.000134 0.000153 -25.868172 -9.690442 -7.969664 0.000215
6 -0.000069 0.000134 0.000153 -8.834305 -35.251945 -12.204165 0.000214
[Rope2_Seg02]
5 139.999741 -0.000060 -0.000119 -19.827673 12.338574 16.607277 139.999756
6 139.999741 -0.000060 -0.000119 -12.161819 18.191578 15.571421 139.999756
[Rope2_Seg03]
5 140.000107 0.000030 0.000000 -26.745749 9.494888 41.827950 140.000107
6 140.000107 0.000030 0.000000 -23.872086 23.828268 41.667439 140.000107
[Rope2_Seg04]
5 139.999802 0.000000 -0.000060 -8.831771 -7.455206 30.190083 139.999802
6 139.999802 0.000000 -0.000060 -10.380664 0.528462 26.490732 139.999802
[Rope2_Seg05]
5 139.999985 -0.000060 0.000119 -0.631040 -2.803417 17.734438 139.999985
6 139.999985 -0.000060 0.000119 -3.817217 3.086858 15.320695 139.999985
[Rope2_Seg06]
5 139.999893 -0.000030 -0.000119 0.907048 -1.593915 10.211804 139.999893
6 139.999893 -0.000030 -0.000119 -2.586584 3.306966 13.688595 139.999893
[Rope2_Seg07]
5 139.999893 0.000060 -0.000060 0.811079 -1.011543 5.338124 139.999893
6 139.999893 0.000060 -0.000060 -1.167579 0.530328 7.603845 139.999893
[Rope2_Seg09]
5 121.338966 0.000089 -0.000060 33.793236 -1.359788 -0.847141 121.338966
6 121.338966 0.000089 -0.000060 33.793236 -1.359788 -0.847141 121.338966
[R_mid_hand01]
5 104.680779 11.144459 -10.335981 -34.269653 35.095993 42.885235 105.778534
6 104.680779 11.144459 -10.335981 -34.269650 35.095989 42.885235 105.778534
[R_mid_hand02]
5 104.070427 2.443552 8.231699 68.449066 -47.537163 16.779839 104.424065
6 104.070427 2.443552 8.231699 68.449066 -47.537163 16.779839 104.424065
[R_mid_hand03]
5 106.028137 -11.221827 -5.996406 -171.106766 13.128626 -52.726494 106.788818
6 106.028137 -11.221827 -5.996406 -171.106766 13.128626 -52.726494 106.788818
[spine02]
5 129.756927 0.001550 0.000119 -0.245322 -4.052059 -4.355546 129.756927
6 129.756927 0.001550 0.000119 -0.245322 -4.052060 -4.355547 129.756927
[spine03]
5 78.613754 0.087408 -4.898830 0.369658 4.260732 -4.885719 78.766296
6 78.613762 0.087402 -4.898838 0.369659 4.260734 -4.885721 78.766304
[pelvis]
5 169.435242 0.051022 0.000000 -0.010057 -0.196355 -1.820888 169.435257
6 169.435242 0.051022 0.000000 -0.010069 -0.196354 -1.813469 169.435257
[null_rope03_connect]
5 -1.257226 -2.466202 137.391083 26.867266 -39.227112 103.912491 137.418976
6 -1.257226 -2.466202 137.391083 27.134388 -17.594772 104.331543 137.418976
[null_rope04_connect]
5 -1.259640 -2.480268 -137.844437 26.867266 -39.227112 103.912491 137.872513
6 -1.259640 -2.480268 -137.844437 27.134388 -17.594772 104.331543 137.872513
[Rope3_Seg01]
5 0.000033 0.000000 0.000128 -11.129146 -66.117668 144.126022 0.000132
6 0.000046 0.000000 0.000122 -31.955713 -51.135521 167.898254 0.000130
[Rope3_Seg02]
5 139.999924 -0.000119 0.000060 -2.088513 12.455132 -13.897492 139.999924
6 139.999924 -0.000119 0.000060 3.715106 11.209827 -13.033916 139.999924
[Rope3_Seg03]
5 139.999924 -0.000119 0.000119 -4.001258 14.567313 -14.719816 139.999924
6 139.999924 -0.000119 0.000119 1.593448 13.871641 -18.583178 139.999924
[Rope3_Seg04]
5 139.999924 0.000119 0.000000 -3.416840 11.503912 -10.275977 139.999924
6 139.999924 0.000119 0.000000 -0.844264 10.876406 -15.792574 139.999924
[Rope3_Seg05]
5 139.999924 -0.000238 0.000060 -7.057588 13.646966 -18.120758 139.999924
6 139.999924 -0.000238 0.000060 -5.027952 10.375919 -23.094856 139.999924
[Rope3_Seg06]
5 139.999893 -0.000119 -0.000060 -8.940530 13.960500 -17.084280 139.999893
6 139.999893 -0.000119 -0.000060 -8.007692 9.225405 -19.708342 139.999893
[Rope3_Seg07]
5 139.999771 0.000060 -0.000119 -4.077851 7.923258 -6.897090 139.999771
6 139.999771 0.000060 -0.000119 -4.336676 5.398321 -8.082132 139.999771
[Rope3_Seg08]
5 139.999985 -0.000060 0.000000 -1.848087 4.451375 -3.382226 139.999985
6 139.999985 -0.000060 0.000000 -2.196203 3.107917 -4.002586 139.999985
[Rope3_Seg09]
5 90.185997 -0.000179 -0.000060 89.793228 -1.359877 -0.847183 90.185997
6 90.185997 -0.000179 -0.000060 89.793228 -1.359877 -0.847183 90.185997
[R_rear_hand01]
5 103.366196 -6.073594 -10.757982 -166.970291 21.129854 -46.704182 104.101845
6 103.366196 -6.073594 -10.757982 -166.970291 21.129850 -46.704182 104.101845
[R_rear_hand02]
5 100.509819 12.039542 -7.992327 -28.148870 27.804201 44.102722 101.543350
6 100.509819 12.039542 -7.992327 -28.148869 27.804199 44.102722 101.543350
[R_rear_hand03]
5 101.539970 5.215704 5.435467 81.628380 -47.127724 10.016966 101.819031
6 101.539970 5.215704 5.435467 81.628380 -47.127724 10.016966 101.819031
[Rope4_Seg01]
5 -0.000018 -0.000064 -0.000153 38.510811 1.992591 -148.059601 0.000166
6 -0.000017 -0.000061 -0.000153 39.272274 8.969635 -134.319565 0.000165
[Rope4_Seg02]
5 139.999985 0.000060 0.000119 -24.608849 -27.578924 -25.573940 139.999985
6 139.999985 0.000060 0.000119 -18.947001 -21.392523 -34.501522 139.999985
[Rope4_Seg03]
5 139.999924 0.000000 -0.000238 -112.244362 -10.800138 -25.697104 139.999924
6 139.999924 0.000000 -0.000238 -56.021812 -5.063959 -29.323734 139.999924
[Rope4_Seg04]
5 139.999985 0.000000 0.000119 -7.443138 12.309620 1.411278 139.999985
6 139.999985 0.000000 0.000119 -20.196394 9.764980 -8.505688 139.999985
[Rope4_Seg05]
5 139.999802 -0.000060 -0.000119 2.301899 7.828062 5.684808 139.999802
6 139.999802 -0.000060 -0.000119 -8.736423 9.968796 -2.847978 139.999802
[Rope4_Seg06]
5 139.999924 0.000000 0.000060 2.675889 6.871673 6.186591 139.999924
6 139.999924 0.000000 0.000060 -4.547723 8.967448 -0.936014 139.999924
[Rope4_Seg07]
5 139.999802 0.000000 0.000000 0.658873 4.918186 3.079720 139.999802
6 139.999802 0.000000 0.000000 -2.085056 5.661575 -0.339168 139.999802
[Rope4_Seg08]
5 139.999924 0.000000 0.000119 -1.233799 3.133588 1.867960 139.999924
6 139.999924 0.000000 0.000119 -2.589041 3.576988 -0.084145 139.999924
[Rope4_Seg09]
5 90.185791 0.000060 0.000060 -135.617828 2.228885 0.850567 90.185791
6 90.185791 0.000060 0.000060 -135.617828 2.228885 0.850567 90.185791
[L_rear_hand01]
5 101.696655 -8.392275 -7.654577 -27.705481 -28.251705 134.947800 102.329041
6 101.696655 -8.392275 -7.654577 -27.705481 -28.251705 134.947800 102.329041
[L_rear_hand02]
5 102.726799 -1.568258 5.773216 81.477219 48.065086 169.775513 102.900848
6 102.726799 -1.568258 5.773216 81.477219 48.065086 169.775513 102.900848
[L_rear_hand03]
5 104.552910 9.721220 -10.420293 -167.330078 -21.338425 -132.303940 105.519653
6 104.552910 9.721220 -10.420293 -167.330078 -21.338425 -132.303940 105.519653
